<?xml version="1.0" encoding="utf-8"?>
<!-- Generator: Adobe Illustrator 25.4.1, SVG Export Plug-In . SVG Version: 6.00 Build 0)  -->
<svg version="1.1" id="Layer_1" xmlns="http://www.w3.org/2000/svg" xmlns:xlink="http://www.w3.org/1999/xlink" x="0px" y="0px"
	 viewBox="0 0 2000 2000" style="enable-background:new 0 0 2000 2000;" xml:space="preserve">
<style type="text/css">
	
		.st0{clip-path:url(#SVGID_00000165231072730358542030000001939483673818418337_);fill:url(#SVGID_00000147912497426272900230000008680670813157229758_);}
	.st1{clip-path:url(#SVGID_00000165231072730358542030000001939483673818418337_);fill:#FFC0BB;}
	.st2{opacity:0.2;clip-path:url(#SVGID_00000165231072730358542030000001939483673818418337_);fill:#FFC0BB;}
	.st3{clip-path:url(#SVGID_00000165231072730358542030000001939483673818418337_);}
	.st4{fill:#EAA0A0;}
	
		.st5{clip-path:url(#SVGID_00000165231072730358542030000001939483673818418337_);fill:url(#SVGID_00000104684222344080096650000002280270450178192028_);}
	.st6{clip-path:url(#SVGID_00000165231072730358542030000001939483673818418337_);fill:#FFFFFF;}
	
		.st7{clip-path:url(#SVGID_00000165231072730358542030000001939483673818418337_);fill:url(#SVGID_00000007429373010447891770000006387614726391030694_);}
	
		.st8{clip-path:url(#SVGID_00000165231072730358542030000001939483673818418337_);fill:url(#SVGID_00000068653543723804378490000016427867295630555303_);}
	.st9{clip-path:url(#SVGID_00000165231072730358542030000001939483673818418337_);fill:#EAA0A0;}
	.st10{clip-path:url(#SVGID_00000165231072730358542030000001939483673818418337_);fill:#EFADAB;}
	.st11{clip-path:url(#SVGID_00000165231072730358542030000001939483673818418337_);fill:#473B1E;}
	.st12{clip-path:url(#SVGID_00000165231072730358542030000001939483673818418337_);fill:#002A24;}
	.st13{clip-path:url(#SVGID_00000165231072730358542030000001939483673818418337_);fill:#EDFDFC;}
	.st14{clip-path:url(#SVGID_00000165231072730358542030000001939483673818418337_);fill:#B7D972;}
	
		.st15{clip-path:url(#SVGID_00000165231072730358542030000001939483673818418337_);fill:url(#SVGID_00000043454270713901292140000008718179224922154158_);}
	
		.st16{clip-path:url(#SVGID_00000165231072730358542030000001939483673818418337_);fill:url(#SVGID_00000026143210914237035200000006324147156465394053_);}
</style>
<g>
	<defs>
		<circle id="SVGID_1_" cx="1000" cy="1000" r="974"/>
	</defs>
	<clipPath id="SVGID_00000106852400641605666870000004974363171556270225_">
		<use xlink:href="#SVGID_1_"  style="overflow:visible;"/>
	</clipPath>
	
		<linearGradient id="SVGID_00000032624724697330955440000010858067867811493803_" gradientUnits="userSpaceOnUse" x1="1735.8706" y1="127.3255" x2="418.7712" y2="1591.1758">
		<stop  offset="0" style="stop-color:#53CD9F"/>
		<stop  offset="1" style="stop-color:#0D7A5C"/>
	</linearGradient>
	
		<path style="clip-path:url(#SVGID_00000106852400641605666870000004974363171556270225_);fill:url(#SVGID_00000032624724697330955440000010858067867811493803_);" d="
		M957.5,1744.9c0,0-625.6-46-700.8-351.9c-75.2-305.9,91.5-347.5,148.4-518.9c56.9-171.3-201.3-272.4-28.5-505.5
		c172.8-233.1,427.7-237.2,535.1-127.4c107.4,109.8,231.2-67.1,430.6,32.5c199.4,99.6,248.2,301,185.1,458.2
		c-63,157.2,195.4,307.6,227.8,485.9C1787.7,1396.1,1495.1,1823.5,957.5,1744.9z"/>
	<path style="clip-path:url(#SVGID_00000106852400641605666870000004974363171556270225_);fill:#FFC0BB;" d="M323.6,1828.5L651,1959
		l78.6-214.2c11-29.7,33.6-53.5,62.4-66.5c27.2-12.3,63.7-34.6,99.1-74.3c68.9-77.4,105.5-160.4,105.5-160.4l-232.3-1.1
		c0,0,20.9-130-94.6-302.6c-12.4-18.5-18-40.6-16.1-62.8l10.9-125.9c0,0,78.5-87.7,30.3-196.5c0,0-46-63.7-64.3-40.4
		c0,0-139.1,331.1-151.7,380.4s-29.5,80.2-12.7,234.9c4.5,41,6.1,75.1,6,103.2c-0.1,53.9-12.2,107.2-35.2,155.9L323.6,1828.5z"/>
	<path style="opacity:0.2;clip-path:url(#SVGID_00000106852400641605666870000004974363171556270225_);fill:#FFC0BB;" d="
		M673.2,1613.7c-34.8-38.6-83.1-32.5-134-50.2c-50.8-17.6-67.1-144.7-67.1-144.7l0,0c0.1,4.8,0.1,9.5,0.1,13.9
		c-0.1,53.9-12.2,107.2-35.2,155.9l-113.4,239.8L651,1958l78.6-213.2c11-29.7,33.6-53.5,62.4-66.5c23.1-10.5,53-28.2,83.2-57.7
		C771.9,1663.9,708,1652.3,673.2,1613.7z"/>
	<g style="clip-path:url(#SVGID_00000106852400641605666870000004974363171556270225_);">
		<path class="st4" d="M1206.2,493.5c0,0,79.4-53.1,97.5-18.1c18.1,35-103.2,158.9-103.2,158.9L1206.2,493.5z"/>
		<path class="st4" d="M1206.2,725c0,0,79.4-53.1,97.5-18.1c18.1,35-103.2,158.9-103.2,158.9L1206.2,725z"/>
		<path class="st4" d="M1206.2,882.8c0,0,79.4-53.1,97.5-18.1c18.1,35-103.2,158.9-103.2,158.9L1206.2,882.8z"/>
	</g>
	
		<linearGradient id="SVGID_00000182493165530732694270000012838750114435208112_" gradientUnits="userSpaceOnUse" x1="656.634" y1="938.1586" x2="1210.1051" y2="938.1586">
		<stop  offset="0" style="stop-color:#00503E"/>
		<stop  offset="1" style="stop-color:#023222"/>
	</linearGradient>
	
		<path style="clip-path:url(#SVGID_00000106852400641605666870000004974363171556270225_);fill:url(#SVGID_00000182493165530732694270000012838750114435208112_);" d="
		M1151.3,433.9H715.4c-32.5,0-58.8,26.3-58.8,58.8v725.4v165.5c0,32.8,26.6,58.8,58.8,58.8h435.9c32.4,0,58.8-26.3,58.8-58.8V658.2
		V492.7C1210.1,460,1183.5,433.9,1151.3,433.9z"/>
	<path style="opacity:0.2;clip-path:url(#SVGID_00000106852400641605666870000004974363171556270225_);fill:#FFC0BB;" d="
		M696.3,1183c0,0-78.8,193-71.2,229.5c7.6,36.5,55.5,85.3,172.9,69c117.4-16.3,198.5-38,198.5-38s4.9-260.5,0-273.7
		c-4.9-13.2-216-107-224.3-107C764,1062.9,696.3,1183,696.3,1183z"/>
	
		<rect x="685.1" y="514" style="clip-path:url(#SVGID_00000106852400641605666870000004974363171556270225_);fill:#FFFFFF;" width="496.5" height="848.2"/>
	<path style="clip-path:url(#SVGID_00000106852400641605666870000004974363171556270225_);fill:#FFFFFF;" d="M1034.7,487.4H832.9
		c-2.9,0-5.3-2.4-5.3-5.3l0,0c0-2.9,2.4-5.3,5.3-5.3h201.8c2.9,0,5.3,2.4,5.3,5.3l0,0C1040,485,1037.6,487.4,1034.7,487.4z"/>
	<path style="clip-path:url(#SVGID_00000106852400641605666870000004974363171556270225_);fill:#FFC0BB;" d="M646.8,1027.1
		c0,0,3,11.1,9.8,16.6l8-92.6c0,0,57.7-64.5,43.8-151.5c-4.8-29.8-19.6-57.2-42.2-77.1c-12.9-11.4-27.1-19-35.5-8.3
		c0,0-65.4,155.7-110.6,269.5L646.8,1027.1z"/>
	
		<linearGradient id="SVGID_00000018945835100327439360000012868519695080186251_" gradientUnits="userSpaceOnUse" x1="1544.1022" y1="1117.1194" x2="524.6381" y2="1484.4565">
		<stop  offset="0" style="stop-color:#C9CD55"/>
		<stop  offset="0.5065" style="stop-color:#659C52"/>
		<stop  offset="1" style="stop-color:#287F50"/>
	</linearGradient>
	
		<rect x="685.1" y="1312.1" style="clip-path:url(#SVGID_00000106852400641605666870000004974363171556270225_);fill:url(#SVGID_00000018945835100327439360000012868519695080186251_);" width="496.5" height="50.2"/>
	
		<linearGradient id="SVGID_00000061456410605733139990000000450086966365773456_" gradientUnits="userSpaceOnUse" x1="1288.7687" y1="408.498" x2="269.3028" y2="775.8358">
		<stop  offset="0" style="stop-color:#C9CD55"/>
		<stop  offset="0.5065" style="stop-color:#659C52"/>
		<stop  offset="1" style="stop-color:#287F50"/>
	</linearGradient>
	
		<rect x="685.1" y="514" style="clip-path:url(#SVGID_00000106852400641605666870000004974363171556270225_);fill:url(#SVGID_00000061456410605733139990000000450086966365773456_);" width="496.5" height="45"/>
	<path style="clip-path:url(#SVGID_00000106852400641605666870000004974363171556270225_);fill:#EAA0A0;" d="M642.4,805.7
		c18.1-8.3,27.5-55.3,30.9-76.5c-14.5-14.6-32.7-27.7-42.6-15c0,0-14.4,34.3-34.4,82.4C609.9,804.3,628.8,811.9,642.4,805.7z"/>
	<path style="clip-path:url(#SVGID_00000106852400641605666870000004974363171556270225_);fill:#EFADAB;" d="M1097.6,1072.7
		c0,0-67.1,5.6-69.4,23.4c-2.3,17.8,2.8,49.2,66.1,55.3h65.6c0,0-19.6-54.4-18.7-56.3C1142.2,1093.3,1097.6,1072.7,1097.6,1072.7z"
		/>
	<path style="clip-path:url(#SVGID_00000106852400641605666870000004974363171556270225_);fill:#FFC0BB;" d="M990,1338.5
		c-9.1,4.8-12.2,16.3-7.1,25.2c30.9,53.2,153.6,264.7,164.6,281.9c12.7,19.7,43.6,66.1,146.3,90C1396.6,1759.6,1480,1897,1480,1897
		l275.3-68.5c0,0-74.6-118.2-136.5-424.8c0,0-47.8-254.6-137.9-246.2c0,0-54.9-57.7-108.3-46.4c0,0-101.3-60.5-159-60.5
		l-138.5-163.7c-13.7-16.2-37.9-19.4-54.7-6.5c-5.4,4.1-9.6,9.6-10.7,16.9c-4.2,26.7,30.9,94.3,87.2,175.8
		c56.3,81.6,195.5,340.4,135,454.4c0,0-61.9-46.4-115.4-121C1071.9,1344,1019.2,1323,990,1338.5z"/>
	<path style="clip-path:url(#SVGID_00000106852400641605666870000004974363171556270225_);fill:#EAA0A0;" d="M1214.2,1050.6
		c18.4,15.7,35.6,32.8,51.9,50.7c16.2,17.6,31.7,36.9,45.8,56.4c13,18,28.2,42.1,37.8,62.2c13.1,26.6,19,46.3,22.9,68.9l-0.4,0.1
		c-5-23.6-14.3-46-25.4-67.5c-7.7-15.1-22.8-40.1-38.3-61.3c-14-19.6-29.1-38.5-44.9-56.7c-14.9-17.1-33.6-37.2-49.7-52.6
		L1214.2,1050.6z"/>
	<path style="clip-path:url(#SVGID_00000106852400641605666870000004974363171556270225_);fill:#EAA0A0;" d="M1371.7,1110.6
		c15,7.7,28.3,18.3,40.1,30.4c22.2,22.3,40.3,53,49.4,87.4c3.6,15.3,6,25.7,6.4,49.9l-0.4,0c-1.4-16.6-4.4-33-9.1-49
		c-10.2-33.1-26.2-61.4-48.7-86.1c-10.6-11.6-24.4-24.1-37.8-32.3L1371.7,1110.6z"/>
	<path style="clip-path:url(#SVGID_00000106852400641605666870000004974363171556270225_);fill:#EAA0A0;" d="M1479.9,1156.4
		c13.2,10,26.6,27.7,33.1,39.6c15,25.8,22.1,53.1,23.3,82.4l-0.4,0.1c-5.6-32.6-11.2-51.1-26.4-80.5c-5-9.9-17.8-29.3-29.8-41.3
		L1479.9,1156.4z"/>
	<path style="clip-path:url(#SVGID_00000106852400641605666870000004974363171556270225_);fill:#EAA0A0;" d="M1053.9,1404
		c2.8-14.2-13.8-36.8-28.9-53.9c-9.4-10.6-24.2-14.6-37.3-10.2c-7.3,5.4-9.5,15.6-4.8,23.7c8.3,14.3,23.2,40,40.8,70.4
		C1037,1427.3,1051.3,1417.2,1053.9,1404z"/>
	<path style="clip-path:url(#SVGID_00000106852400641605666870000004974363171556270225_);fill:#EAA0A0;" d="M1067.2,951.1
		c8-1.6,44.3-13.7,42.1-20.3l0,0l-35.8-42.3c-7.1-8.4-17-13.3-27.3-14.3l0,0h0c-0.1,0-0.1,0-0.2,0c-0.3,0-0.9-0.1-1.9-0.1
		c-4.8,0-16.6,1.4-19.2,14.4c-2.6,12.8,18.7,44,28.1,57C1056.2,950,1061.8,952.2,1067.2,951.1z"/>
	<path style="clip-path:url(#SVGID_00000106852400641605666870000004974363171556270225_);fill:#473B1E;" d="M431.6,1607.3
		c39.7,24.4,167.4,97.2,299.4,112.8c7.7,0.9,13.2,8,10.9,14.1l-23.1,61.8c-1.5,4.1-6.1,6.5-11.3,5.8
		c-38.9-4.7-199.5-28.9-312.5-116.3c-3.8-3-5.5-7.5-4-11.3l23.5-63.1C416.8,1605.2,425.1,1603.3,431.6,1607.3z"/>
	<path style="clip-path:url(#SVGID_00000106852400641605666870000004974363171556270225_);fill:#002A24;" d="M420.9,1666.7l-2.2-0.8
		c-1.8-0.7-2.8-2.7-2.1-4.6l7.8-20.8c0.7-1.8,2.7-2.8,4.6-2.1l2.2,0.8c1.8,0.7,2.8,2.7,2.1,4.6l-7.8,20.8
		C424.8,1666.5,422.7,1667.4,420.9,1666.7z"/>
	<path style="clip-path:url(#SVGID_00000106852400641605666870000004974363171556270225_);fill:#002A24;" d="M444.6,1681.3l-2.2-0.8
		c-1.8-0.7-2.8-2.7-2.1-4.6l7.8-20.8c0.7-1.8,2.7-2.8,4.6-2.1l2.2,0.8c1.8,0.7,2.8,2.7,2.1,4.5l-7.8,20.8
		C448.5,1681.1,446.5,1682,444.6,1681.3z"/>
	<path style="clip-path:url(#SVGID_00000106852400641605666870000004974363171556270225_);fill:#002A24;" d="M468.4,1695.9l-2.2-0.8
		c-1.8-0.7-2.8-2.7-2.1-4.6l7.8-20.8c0.7-1.8,2.7-2.8,4.6-2.1l2.2,0.8c1.8,0.7,2.8,2.7,2.1,4.6l-7.8,20.8
		C472.3,1695.6,470.3,1696.6,468.4,1695.9z"/>
	<path style="clip-path:url(#SVGID_00000106852400641605666870000004974363171556270225_);fill:#002A24;" d="M492.9,1707.7l-2.2-0.8
		c-1.8-0.7-2.8-2.7-2.1-4.6l7.8-20.8c0.7-1.8,2.7-2.8,4.5-2.1l2.2,0.8c1.8,0.7,2.8,2.7,2.1,4.6l-7.8,20.8
		C496.8,1707.5,494.7,1708.4,492.9,1707.7z"/>
	<path style="clip-path:url(#SVGID_00000106852400641605666870000004974363171556270225_);fill:#002A24;" d="M517,1721.5l-2.2-0.8
		c-1.8-0.7-2.8-2.7-2.1-4.6l7.8-20.8c0.7-1.8,2.7-2.8,4.6-2.1l2.2,0.8c1.8,0.7,2.8,2.7,2.1,4.6l-7.8,20.8
		C520.9,1721.2,518.8,1722.1,517,1721.5z"/>
	<path style="clip-path:url(#SVGID_00000106852400641605666870000004974363171556270225_);fill:#002A24;" d="M542.2,1732.4l-2.2-0.8
		c-1.8-0.7-2.8-2.7-2.1-4.5l7.8-20.8c0.7-1.8,2.7-2.8,4.6-2.1l2.2,0.8c1.8,0.7,2.8,2.7,2.1,4.5l-7.8,20.8
		C546,1732.1,544,1733,542.2,1732.4z"/>
	<path style="clip-path:url(#SVGID_00000106852400641605666870000004974363171556270225_);fill:#002A24;" d="M567.8,1741.9l-2.2-0.8
		c-1.8-0.7-2.8-2.7-2.1-4.6l7.8-20.8c0.7-1.8,2.7-2.8,4.6-2.1l2.2,0.8c1.8,0.7,2.8,2.7,2.1,4.6l-7.8,20.8
		C571.7,1741.7,569.6,1742.6,567.8,1741.9z"/>
	<path style="clip-path:url(#SVGID_00000106852400641605666870000004974363171556270225_);fill:#002A24;" d="M593.9,1750.2l-2.2-0.8
		c-1.8-0.7-2.8-2.7-2.1-4.6l7.8-20.8c0.7-1.8,2.7-2.8,4.6-2.1l2.2,0.8c1.8,0.7,2.8,2.7,2.1,4.6l-7.8,20.8
		C597.8,1749.9,595.8,1750.9,593.9,1750.2z"/>
	<path style="clip-path:url(#SVGID_00000106852400641605666870000004974363171556270225_);fill:#002A24;" d="M621.1,1755.6l-2.2-0.8
		c-1.8-0.7-2.8-2.7-2.1-4.6l7.8-20.8c0.7-1.8,2.7-2.8,4.6-2.1l2.2,0.8c1.8,0.7,2.8,2.7,2.1,4.5l-7.8,20.8
		C625,1755.3,623,1756.3,621.1,1755.6z"/>
	<path style="clip-path:url(#SVGID_00000106852400641605666870000004974363171556270225_);fill:#002A24;" d="M647.6,1762.9l-2.2-0.8
		c-1.8-0.7-2.8-2.7-2.1-4.6l7.8-20.8c0.7-1.8,2.7-2.8,4.6-2.1l2.2,0.8c1.8,0.7,2.8,2.7,2.1,4.6l-7.8,20.8
		C651.5,1762.7,649.4,1763.6,647.6,1762.9z"/>
	<path style="clip-path:url(#SVGID_00000106852400641605666870000004974363171556270225_);fill:#002A24;" d="M675.1,1767.5l-2.2-0.8
		c-1.8-0.7-2.8-2.7-2.1-4.6l7.8-20.8c0.7-1.8,2.7-2.8,4.5-2.1l2.2,0.8c1.8,0.7,2.8,2.7,2.1,4.6l-7.8,20.8
		C679,1767.3,676.9,1768.2,675.1,1767.5z"/>
	<path style="clip-path:url(#SVGID_00000106852400641605666870000004974363171556270225_);fill:#002A24;" d="M702.6,1772l-2.2-0.8
		c-1.8-0.7-2.8-2.7-2.1-4.6l7.8-20.8c0.7-1.8,2.7-2.8,4.6-2.1l2.2,0.8c1.8,0.7,2.8,2.7,2.1,4.5l-7.8,20.8
		C706.5,1771.8,704.5,1772.7,702.6,1772z"/>
	<path style="clip-path:url(#SVGID_00000106852400641605666870000004974363171556270225_);fill:#EDFDFC;" d="M510,1750.4l0.1-0.3
		c-0.4-0.1-0.8-0.2-1.2-0.3l-31.3-11.7c-3.1-1.2-4.6-4.8-3.3-8.1l28.2-75.5c1.2-3.3,4.8-5.1,7.9-4l31.2,11.7
		c1.8,0.7,3.1,2.2,3.6,4.1c2.5,1.1,4.9,2.1,7.4,3.2c0.8-6.3-2.4-12.5-8.2-14.7l-31.3-11.7c-6.8-2.6-14.7,1.4-17.4,8.8l-28.2,75.5
		c-2.8,7.4,0.6,15.5,7.4,18.1l31.2,11.7c4.7,1.8,9.8,0.5,13.5-2.9C516.4,1753,513.2,1751.7,510,1750.4z"/>
	<path style="clip-path:url(#SVGID_00000106852400641605666870000004974363171556270225_);fill:#B7D972;" d="M503.1,1690.5
		l-13.6-5.1c-2.4-0.9-5.2,0.5-6.2,3.1c-1,2.6,0.2,5.5,2.6,6.4l13.6,5.1L503.1,1690.5z"/>
	<path style="opacity:0.2;clip-path:url(#SVGID_00000106852400641605666870000004974363171556270225_);fill:#FFC0BB;" d="M1480,1896
		l275.3-67.5c0,0-48.9-77.5-100.3-269.8c-22.6,141.6-147.2,133.4-196.6,141.3c-56.9,9-277.9-37-308.9-51.6
		c13.8,21,46.4,64.4,144.5,87.2C1396.6,1759.6,1480,1896,1480,1896z"/>
	<path style="opacity:0.2;clip-path:url(#SVGID_00000106852400641605666870000004974363171556270225_);fill:#FFC0BB;" d="
		M1113.7,1098.7c62.1,99.7,173.4,328.8,118.3,428.7l36.6,36.1c0,0,92.4-102.3-54.6-328C1179.7,1183,1145.7,1137.6,1113.7,1098.7z"/>
	
		<linearGradient id="SVGID_00000131368172511103001900000008437419450272838294_" gradientUnits="userSpaceOnUse" x1="1297.4209" y1="-267.1696" x2="-19.6752" y2="1196.677">
		<stop  offset="0" style="stop-color:#53CD9F"/>
		<stop  offset="1" style="stop-color:#0D7A5C"/>
	</linearGradient>
	
		<path style="clip-path:url(#SVGID_00000106852400641605666870000004974363171556270225_);fill:url(#SVGID_00000131368172511103001900000008437419450272838294_);" d="
		M256.9,808.6c-12.9-65.2,84.3-87.1,100-22.5c1.4,5.8,2.3,12.4,2.6,19.6c3,77.6-43.9,162-93.9,147.8c-50-14.2-21.2-67.2-6.1-99
		C266.6,839.7,260.2,825.4,256.9,808.6z"/>
	
		<linearGradient id="SVGID_00000133491944206988882660000004313792258725661372_" gradientUnits="userSpaceOnUse" x1="2045.7476" y1="406.1393" x2="728.6525" y2="1869.9849">
		<stop  offset="0" style="stop-color:#53CD9F"/>
		<stop  offset="1" style="stop-color:#0D7A5C"/>
	</linearGradient>
	
		<path style="clip-path:url(#SVGID_00000106852400641605666870000004974363171556270225_);fill:url(#SVGID_00000133491944206988882660000004313792258725661372_);" d="
		M1670.7,666.5c-28.5-9.9-59.7,5.2-70.4,33.4c-8.3,21.9-17.9,52.5-18.7,79.4c-1.6,48.5,17.7,152.6,91.5,178.3
		c73.8,25.7,117.8-42.1,68.7-120.6C1720.8,803.6,1731.2,687.7,1670.7,666.5z"/>
</g>
</svg>
